<svg width="48" height="48" viewBox="0 0 48 48" fill="none" xmlns="http://www.w3.org/2000/svg">
<rect width="48" height="48" rx="8" fill="white"/>
<path d="M35.714 17.1937C35.543 17.332 32.5242 19.1047 32.5242 23.0465C32.5242 27.6058 36.3655 29.2187 36.4805 29.2587C36.4628 29.357 35.8702 31.4676 34.4552 33.6183C33.1934 35.5108 31.8756 37.4003 29.871 37.4003C27.8663 37.4003 27.3504 36.1867 25.0362 36.1867C22.7809 36.1867 21.9791 37.4402 20.1454 37.4402C18.3117 37.4402 17.0322 35.689 15.5612 33.5384C13.8572 31.0129 12.4805 27.0896 12.4805 23.366C12.4805 17.3934 16.2068 14.2259 19.8742 14.2259C21.8228 14.2259 23.4472 15.5592 24.6706 15.5592C25.8351 15.5592 27.6511 14.146 29.868 14.146C30.7082 14.146 33.727 14.2259 35.714 17.1937ZM28.8156 11.6175C29.7324 10.4838 30.381 8.91077 30.381 7.33775C30.381 7.11961 30.3633 6.89841 30.325 6.72021C28.8333 6.77859 27.0585 7.75558 25.9884 9.04902C25.1482 10.0445 24.364 11.6175 24.364 13.212C24.364 13.4516 24.4023 13.6913 24.42 13.7681C24.5144 13.7865 24.6677 13.808 24.821 13.808C26.1594 13.808 27.8427 12.874 28.8156 11.6175Z" fill="#222222"/>
</svg>
