<svg width="56" height="56" viewBox="0 0 56 56" fill="none" xmlns="http://www.w3.org/2000/svg">
<g filter="url(#filter0_d_4209_9641)">
<rect x="4" width="48" height="48" rx="8" fill="#1877F2"/>
<g clip-path="url(#clip0_4209_9641)">
<path d="M46 21.2401C46 10.9665 37.9422 2.64014 28 2.64014C18.0578 2.64014 10 10.9665 10 21.2401C10 30.5256 16.5812 38.2199 25.1875 39.6149V26.6167H20.6172V21.2401H25.1875V17.1423C25.1875 12.4814 27.8734 9.90576 31.9867 9.90576C33.9555 9.90576 36.0156 10.269 36.0156 10.269V14.8464H33.7445C31.5086 14.8464 30.8125 16.2813 30.8125 17.7526V21.2401H35.8047L35.0066 26.6167H30.8125V39.6149C39.4188 38.2199 46 30.5256 46 21.2401Z" fill="#1877F2"/>
<path d="M35.0066 26.6167L35.8047 21.2401H30.8125V17.7526C30.8125 16.2813 31.5086 14.8464 33.7445 14.8464H36.0156V10.269C36.0156 10.269 33.9555 9.90576 31.9867 9.90576C27.8734 9.90576 25.1875 12.4814 25.1875 17.1423V21.2401H20.6172V26.6167H25.1875V39.6149C26.1051 39.7638 27.0437 39.8401 28 39.8401C28.9563 39.8401 29.8949 39.7638 30.8125 39.6149V26.6167H35.0066Z" fill="white"/>
</g>
</g>
<defs>
<filter id="filter0_d_4209_9641" x="0" y="0" width="56" height="56" filterUnits="userSpaceOnUse" color-interpolation-filters="sRGB">
<feFlood flood-opacity="0" result="BackgroundImageFix"/>
<feColorMatrix in="SourceAlpha" type="matrix" values="0 0 0 0 0 0 0 0 0 0 0 0 0 0 0 0 0 0 127 0" result="hardAlpha"/>
<feOffset dy="4"/>
<feGaussianBlur stdDeviation="2"/>
<feComposite in2="hardAlpha" operator="out"/>
<feColorMatrix type="matrix" values="0 0 0 0 0 0 0 0 0 0 0 0 0 0 0 0 0 0 0.25 0"/>
<feBlend mode="normal" in2="BackgroundImageFix" result="effect1_dropShadow_4209_9641"/>
<feBlend mode="normal" in="SourceGraphic" in2="effect1_dropShadow_4209_9641" result="shape"/>
</filter>
<clipPath id="clip0_4209_9641">
<rect width="36" height="37.2" fill="white" transform="translate(10 2.64014)"/>
</clipPath>
</defs>
</svg>
