<svg width="48" height="48" viewBox="0 0 48 48" fill="none" xmlns="http://www.w3.org/2000/svg">
<rect x="0.25" y="0.25" width="47.5" height="47.5" rx="7.75" fill="white"/>
<rect x="0.25" y="0.25" width="47.5" height="47.5" rx="7.75" stroke="#BAC1DA" stroke-width="0.5"/>
<path fill-rule="evenodd" clip-rule="evenodd" d="M38.6104 24.2792C38.6104 23.1949 38.5131 22.1523 38.3324 21.1514H23.9307V27.0664H32.1602C31.8057 28.9778 30.7284 30.5973 29.1089 31.6816V35.5183H34.0508C36.9423 32.8563 38.6104 28.9361 38.6104 24.2792Z" fill="#4285F4"/>
<path fill-rule="evenodd" clip-rule="evenodd" d="M23.9306 39.223C28.0593 39.223 31.5207 37.8537 34.0507 35.5183L29.1088 31.6815C27.7395 32.599 25.988 33.1411 23.9306 33.1411C19.9479 33.1411 16.5768 30.4512 15.3743 26.8369H10.2656V30.7988C12.7818 35.7963 17.953 39.223 23.9306 39.223Z" fill="#34A853"/>
<path fill-rule="evenodd" clip-rule="evenodd" d="M15.3748 26.8371C15.069 25.9196 14.8952 24.9395 14.8952 23.9317C14.8952 22.9238 15.069 21.9438 15.3748 21.0263V17.0645H10.2661C9.23045 19.1288 8.63965 21.4642 8.63965 23.9317C8.63965 26.3992 9.23045 28.7346 10.2661 30.7989L15.3748 26.8371Z" fill="#FBBC05"/>
<path fill-rule="evenodd" clip-rule="evenodd" d="M23.9306 14.722C26.1756 14.722 28.1913 15.4935 29.7761 17.0087L34.1619 12.6229C31.5137 10.1554 28.0523 8.64014 23.9306 8.64014C17.953 8.64014 12.7818 12.0668 10.2656 17.0643L15.3743 21.0262C16.5768 17.4118 19.9479 14.722 23.9306 14.722Z" fill="#EA4335"/>
</svg>
