<svg width="48" height="48" viewBox="0 0 48 48" fill="none" xmlns="http://www.w3.org/2000/svg">
<rect width="48" height="48" rx="8" fill="#FEE500"/>
<path d="M24.2852 8.64014C15.0929 8.64014 7.67969 14.5706 7.67969 21.7703C7.67969 26.4435 10.7636 30.5356 15.3894 32.8722L13.8237 38.7198C13.7942 38.8074 13.7897 38.9015 13.8106 38.9916C13.8316 39.0816 13.8772 39.1641 13.9423 39.2297C14.0374 39.3135 14.1596 39.3599 14.2863 39.3602C14.3913 39.3518 14.491 39.3103 14.571 39.2416L21.3081 34.6989C22.3025 34.8361 23.305 34.9074 24.3089 34.9123C33.4894 34.9123 40.9144 28.9818 40.9144 21.7703C40.9144 14.5587 33.4657 8.64014 24.2852 8.64014Z" fill="#392020"/>
<path d="M13.4909 19.6943H11.6761C11.4512 19.7008 11.2291 19.6432 11.0356 19.5282C10.9498 19.4744 10.8759 19.4034 10.8188 19.3197C10.7616 19.236 10.7224 19.1414 10.7035 19.0419C10.6978 18.9787 10.6978 18.9153 10.7035 18.8522C10.6979 18.7341 10.7208 18.6163 10.7704 18.5089C10.8199 18.4015 10.8947 18.3077 10.9882 18.2354C11.195 18.0856 11.4446 18.0065 11.6999 18.01H17.1678C17.3945 18.002 17.6182 18.0641 17.8083 18.1879C17.8962 18.2393 17.9716 18.3097 18.029 18.3938C18.0865 18.4779 18.1245 18.5737 18.1404 18.6742C18.1462 18.7334 18.1462 18.793 18.1404 18.8522C18.146 18.972 18.1231 19.0914 18.0737 19.2007C18.0242 19.31 17.9495 19.4059 17.8558 19.4807C17.654 19.6303 17.4068 19.7058 17.156 19.6943H15.4005V25.9332C15.4077 26.0661 15.3871 26.199 15.3401 26.3236C15.2932 26.4481 15.2208 26.5616 15.1277 26.6567C15.0384 26.7477 14.9311 26.819 14.8126 26.8659C14.6941 26.9129 14.5671 26.9346 14.4398 26.9295C14.217 26.9359 13.999 26.8647 13.823 26.728C13.6555 26.5944 13.5417 26.4048 13.5028 26.1941C13.491 26.1075 13.491 26.0198 13.5028 25.9332L13.4909 19.6943Z" fill="#FEE500"/>
<path d="M18.6642 18.4729C18.7164 18.2777 18.8389 18.1087 19.0082 17.9984C19.1886 17.8962 19.3941 17.8468 19.6012 17.8561H20.0519C20.2717 17.8482 20.4894 17.9016 20.6806 18.0103C20.8832 18.1465 21.0272 18.354 21.0839 18.5915L23.4561 25.293C23.5176 25.4678 23.5691 25.6461 23.6103 25.8268C23.6143 25.9019 23.6143 25.9771 23.6103 26.0521C23.6143 26.1677 23.593 26.2828 23.5479 26.3893C23.5029 26.4959 23.4351 26.5913 23.3493 26.6689C23.2662 26.7541 23.1665 26.8212 23.0563 26.8661C22.9461 26.911 22.8278 26.9327 22.7088 26.9298C22.5259 26.948 22.3421 26.9041 22.1872 26.8052C22.0323 26.7062 21.9152 26.5579 21.8548 26.3843L21.3567 24.9254H18.2372L17.739 26.3843C17.6801 26.5613 17.5616 26.7125 17.4037 26.812C17.2458 26.9115 17.0583 26.9531 16.8732 26.9298C16.6726 26.9351 16.4762 26.8724 16.3157 26.7519C16.1594 26.6276 16.0539 26.4505 16.0192 26.2538C16.0129 26.1867 16.0129 26.1192 16.0192 26.0521C15.9988 25.9344 15.9988 25.8141 16.0192 25.6964C16.0192 25.5659 16.1022 25.4235 16.1497 25.293L18.6642 18.4729ZM19.8503 20.0267L18.7235 23.5851H20.9652L19.8503 20.0267Z" fill="#FEE500"/>
<path d="M23.8819 18.8524C23.8698 18.5862 23.9637 18.3261 24.1428 18.1289C24.2339 18.037 24.3433 17.9652 24.4638 17.9182C24.5843 17.8712 24.7134 17.85 24.8426 17.856C25.0648 17.8534 25.2817 17.9243 25.4594 18.0577C25.6242 18.1968 25.7336 18.3903 25.7678 18.6032C25.7795 18.6858 25.7795 18.7698 25.7678 18.8524V25.0913H29.0296C29.2557 25.0884 29.4779 25.15 29.6701 25.2691C29.7564 25.3224 29.8306 25.3933 29.8879 25.4771C29.9451 25.5608 29.984 25.6557 30.0022 25.7555C30.0022 25.7555 30.0022 25.8741 30.0022 25.9334C30.0078 26.0515 29.9849 26.1692 29.9354 26.2766C29.8858 26.3839 29.8111 26.4779 29.7175 26.5502C29.5108 26.7 29.2612 26.7789 29.0059 26.7755H24.9968C24.7415 26.792 24.4877 26.7255 24.2733 26.5858C24.0815 26.4424 23.9538 26.2295 23.9175 25.9928C23.9088 25.8625 23.9088 25.7316 23.9175 25.6013L23.8819 18.8524Z" fill="#FEE500"/>
<path d="M30.2157 18.8525C30.2086 18.5871 30.3018 18.3288 30.4766 18.129C30.6544 17.9675 30.8824 17.8721 31.1223 17.8591C31.3621 17.8462 31.5991 17.9164 31.7932 18.0578C31.9616 18.1957 32.0751 18.3891 32.1135 18.6034C32.1193 18.6863 32.1193 18.7696 32.1135 18.8525V21.7584L35.1143 18.295C35.2299 18.1768 35.3527 18.066 35.482 17.963C35.6038 17.8904 35.7435 17.8533 35.8853 17.8561C36.0926 17.855 36.2953 17.9171 36.4665 18.034C36.5471 18.0884 36.616 18.1584 36.669 18.2399C36.722 18.3215 36.758 18.4128 36.7749 18.5085C36.7797 18.532 36.7797 18.5563 36.7749 18.5798C36.7691 18.6071 36.7691 18.6353 36.7749 18.6627C36.7745 18.7875 36.7418 18.9102 36.68 19.0186C36.617 19.1334 36.5415 19.2407 36.4546 19.3387L34.4857 21.4975L36.8579 25.1744V25.293C36.9811 25.463 37.0771 25.6512 37.1426 25.8506V25.9098C37.1563 26.0472 37.1365 26.186 37.0848 26.3141C37.0332 26.4421 36.9512 26.5557 36.846 26.6452C36.6482 26.7947 36.4061 26.8741 36.1581 26.8706C35.9933 26.8774 35.8296 26.8405 35.6837 26.7638C35.5257 26.6578 35.3955 26.5155 35.3041 26.3487L33.0979 22.7903L32.0423 23.8935V25.8742C32.0494 26.1396 31.9562 26.3979 31.7814 26.5977C31.6876 26.6893 31.5761 26.7609 31.4537 26.8078C31.3313 26.8547 31.2007 26.8761 31.0697 26.8706C30.8508 26.8752 30.6371 26.8039 30.4648 26.6689C30.2972 26.5354 30.1835 26.3459 30.1445 26.1352C30.1328 26.0487 30.1328 25.9608 30.1445 25.8742L30.2157 18.8525Z" fill="#FEE500"/>
</svg>
